# xmcd CD database file
#
# Track frame offsets:
#	150
#	10017
#	22706
#	74780
#	86388
#	95429
#	107084
#	121493
#	135295
#	144749
#	152608
#	163304
#	171960
#
# Disc length: 2469 seconds
#
# Revision: 0
# Processed by: cddbd v1.5.1PL2 Copyright (c) Steve Scherf et al.
# Submitted via: CDex 1.51
#
DISCID=a409a30d
DTITLE=Billie Holiday - Les légendes du Jazz
DYEAR=2001
DGENRE=Jazz
TTITLE0=Blue Moon
TTITLE1=My Man
TTITLE2=Billie's Blues
TTITLE3=What a little Moonlight Can Do
TTITLE4=Be Fair With My Baby
TTITLE5=Rocky Mountain Blues
TTITLE6=I Cover The Waterfront
TTITLE7=Trav'Lin Light
TTITLE8=Lover Come Back To Me
TTITLE9=All of Me
TTITLE10=Ain't Nobody Business If I Do
TTITLE11=Them There Eyes
TTITLE12=Lover Man
EXTD=YEAR: 2001
EXTT0=
EXTT1=
EXTT2=
EXTT3=
EXTT4=
EXTT5=
EXTT6=
EXTT7=
EXTT8=
EXTT9=
EXTT10=
EXTT11=
EXTT12=
PLAYORDER=
